<?xml version="1.0" standalone="no"?>
<!DOCTYPE svg PUBLIC "-//W3C//DTD SVG 20010904//EN"
 "http://www.w3.org/TR/2001/REC-SVG-20010904/DTD/svg10.dtd">
<svg version="1.0" xmlns="http://www.w3.org/2000/svg"
 width="390.000000pt" height="390.000000pt" viewBox="0 0 390.000000 390.000000"
 preserveAspectRatio="xMidYMid meet">
<metadata>
Created by potrace 1.11, written by Peter Selinger 2001-2013
</metadata>
<g transform="translate(0.000000,390.000000) scale(0.100000,-0.100000)"
fill="#000000" stroke="none">
<path d="M788 3264 c-2 -1 -27 -5 -56 -9 -119 -15 -248 -75 -382 -179 -94 -73
-117 -94 -170 -161 -124 -156 -186 -349 -154 -481 21 -86 82 -163 164 -206 68
-35 184 -32 262 6 89 44 171 125 214 211 33 67 36 80 31 129 -6 64 -27 99 -70
119 -31 15 -115 16 -139 1 -18 -11 14 -24 62 -24 75 -1 106 -41 96 -123 -10
-69 -51 -150 -110 -214 -132 -144 -326 -132 -403 25 -39 79 -39 200 1 319 90
274 456 570 683 551 67 -6 101 -29 132 -92 57 -114 15 -335 -142 -736 -33 -85
-95 -223 -137 -307 -79 -156 -82 -173 -34 -173 47 0 73 19 95 67 12 26 35 77
51 113 110 241 156 336 216 440 50 87 159 258 172 270 3 3 25 32 50 65 128
172 218 223 266 150 20 -31 20 -98 -1 -221 -40 -229 -99 -405 -217 -641 -87
-175 -89 -193 -27 -193 40 0 71 33 120 130 73 145 252 428 363 575 33 44 101
121 151 171 114 115 189 156 223 122 30 -30 7 -107 -113 -373 -73 -160 -137
-335 -151 -408 -23 -123 5 -232 74 -285 58 -45 212 -76 212 -42 0 6 -19 10
-42 10 -57 0 -108 27 -132 70 -16 26 -20 53 -21 120 0 47 3 99 6 116 24 114
112 350 187 501 84 167 108 254 91 319 -30 108 -189 59 -354 -111 -81 -83
-220 -260 -335 -425 -40 -58 -70 -96 -66 -85 44 121 119 387 132 470 12 78 8
159 -10 193 -21 40 -69 63 -120 56 -46 -5 -131 -45 -168 -78 -46 -41 -181
-227 -248 -342 -35 -60 -65 -103 -68 -96 -2 7 7 45 21 85 22 63 37 114 54 182
3 11 7 63 9 115 4 140 -36 234 -118 273 -30 14 -144 38 -150 31z"/>
<path d="M3574 2071 c-22 -10 -70 -46 -105 -79 l-64 -60 -37 19 c-164 84 -397
113 -614 75 -198 -34 -338 -97 -440 -200 -90 -91 -118 -148 -118 -241 -1 -115
53 -201 154 -249 64 -30 189 -29 246 1 84 44 134 108 148 185 6 33 -20 61 -30
32 -19 -60 -32 -83 -68 -122 -54 -58 -89 -75 -161 -76 -73 0 -125 16 -160 52
-148 147 45 443 353 541 91 29 117 33 257 36 150 4 232 -13 354 -70 80 -38 78
-34 28 -90 -51 -57 -196 -295 -282 -465 -101 -199 -213 -379 -290 -464 l-36
-39 -127 61 c-151 73 -233 96 -317 89 -206 -16 -258 -232 -77 -314 49 -22 72
-26 162 -27 125 -1 216 24 310 85 l59 38 63 -28 c91 -41 151 -59 253 -75 86
-14 278 -15 335 -2 14 3 48 11 75 17 69 16 182 71 231 113 144 124 202 354
149 594 -38 171 -159 351 -309 458 -28 20 -28 21 -13 51 27 51 97 134 123 143
13 5 24 14 24 20 0 15 -30 12 -76 -9z m-58 -313 c141 -149 215 -329 216 -523
1 -191 -44 -293 -174 -397 -92 -74 -203 -109 -358 -113 -162 -5 -262 13 -387
72 l-52 24 63 65 c100 102 214 272 525 781 104 170 96 166 167 91z m-1111
-824 c11 -4 49 -20 84 -36 35 -16 86 -38 113 -50 27 -11 47 -25 45 -31 -6 -18
-128 -75 -191 -88 -154 -33 -252 6 -263 104 -5 38 -1 48 26 80 40 45 100 52
186 21z"/>
</g>
</svg>
